<svg width="66" height="60" viewBox="0 0 66 60" fill="none" xmlns="http://www.w3.org/2000/svg">
<path d="M30.5835 17.5575C31.6262 15.85 32.1475 15 32.9268 15C33.7061 15 34.2274 15.85 35.2701 17.5575L35.539 17.9975C35.8353 18.4825 35.9835 18.7225 36.214 18.8825C36.4472 19.0425 36.7353 19.1025 37.3116 19.22L37.8329 19.33C39.8579 19.7475 40.8704 19.955 41.1119 20.66C41.3533 21.3675 40.6619 22.1025 39.2817 23.5725L38.925 23.9525C38.5326 24.37 38.335 24.5775 38.2472 24.8375C38.1594 25.0975 38.1896 25.375 38.2472 25.9325L38.3021 26.44C38.5107 28.4025 38.6149 29.385 37.9866 29.82C37.3555 30.255 36.4061 29.8575 34.51 29.0625L34.0216 28.8575C33.4811 28.6325 33.2122 28.52 32.9268 28.52C32.6414 28.52 32.3725 28.6325 31.832 28.8575L31.3436 29.0625C29.4475 29.86 28.4982 30.255 27.8671 29.82C27.236 29.385 27.343 28.4025 27.5515 26.44L27.6064 25.9325C27.664 25.375 27.6942 25.0975 27.6064 24.8375C27.5186 24.58 27.321 24.37 26.9286 23.9525L26.5719 23.5725C25.1918 22.1025 24.5003 21.3675 24.7418 20.66C24.9832 19.955 25.9957 19.7475 28.0207 19.33L28.5421 19.22C29.1183 19.1025 29.4064 19.045 29.6396 18.8825C29.8701 18.7225 30.0183 18.4825 30.3146 17.9975L30.5835 17.5575Z" stroke="#06283D" stroke-width="3.75"/>
<path d="M52.1342 22.5C52.1342 24.7981 51.6374 27.0738 50.6722 29.197C49.7069 31.3202 48.2921 33.2493 46.5085 34.8744C44.725 36.4994 42.6076 37.7884 40.2772 38.6679C37.9469 39.5473 35.4493 40 32.9269 40C30.4046 40 27.9069 39.5473 25.5766 38.6679C23.2463 37.7884 21.1289 36.4994 19.3453 34.8744C17.5617 33.2493 16.1469 31.3202 15.1817 29.197C14.2164 27.0738 13.7196 24.7981 13.7196 22.5C13.7196 17.8587 15.7432 13.4075 19.3453 10.1256C22.9474 6.84374 27.8328 5 32.9269 5C38.021 5 42.9065 6.84374 46.5085 10.1256C50.1106 13.4075 52.1342 17.8587 52.1342 22.5Z" stroke="#06283D" stroke-width="3.75"/>
<path d="M14.9708 30L8.20979 36.3775C6.72808 37.775 5.98723 38.475 5.7293 39.0675C5.14485 40.415 5.64698 41.9125 6.91741 42.6225C7.47717 42.9325 8.48418 43.03 10.4982 43.225C11.6369 43.335 12.2049 43.3875 12.6796 43.555C13.2103 43.7425 13.6901 44.0327 14.0857 44.4056C14.4812 44.7786 14.7832 45.2253 14.9708 45.715C15.1464 46.165 15.204 46.7 15.322 47.775C15.525 49.675 15.6293 50.625 15.9586 51.15C16.7104 52.35 18.2991 52.82 19.7259 52.27C20.357 52.03 21.0979 51.3325 22.5796 49.9325L32.9269 40.17L43.2741 49.9325C44.7558 51.3325 45.4967 52.03 46.1278 52.27C47.5546 52.82 49.1433 52.35 49.8952 51.15C50.2244 50.625 50.326 49.675 50.5317 47.775C50.6497 46.7 50.7074 46.165 50.883 45.715C51.2781 44.71 52.1067 43.9275 53.1741 43.555C53.6488 43.3875 54.2168 43.335 55.3555 43.225C57.3696 43.03 58.3766 42.9325 58.9363 42.6225C60.2067 41.9125 60.7089 40.415 60.1244 39.0675C59.8665 38.475 59.1256 37.775 57.6439 36.3775L50.883 30" stroke="#06283D" stroke-width="3.75"/>
</svg>
