<svg width="50" height="50" viewBox="0 0 50 50" fill="none" xmlns="http://www.w3.org/2000/svg">
<path d="M38.125 11.8958C37.9322 11.7027 37.7033 11.5495 37.4513 11.4449C37.1992 11.3404 36.9291 11.2866 36.6562 11.2866C36.3834 11.2866 36.1132 11.3404 35.8612 11.4449C35.6091 11.5495 35.3802 11.7027 35.1875 11.8958L25 22.0625L14.8125 11.875C14.6196 11.6821 14.3906 11.5291 14.1386 11.4247C13.8866 11.3204 13.6165 11.2666 13.3437 11.2666C13.071 11.2666 12.8009 11.3204 12.5488 11.4247C12.2968 11.5291 12.0679 11.6821 11.875 11.875C11.6821 12.0679 11.5291 12.2969 11.4247 12.5489C11.3203 12.8009 11.2666 13.071 11.2666 13.3438C11.2666 13.6165 11.3203 13.8866 11.4247 14.1386C11.5291 14.3906 11.6821 14.6196 11.875 14.8125L22.0625 25L11.875 35.1875C11.6821 35.3804 11.5291 35.6094 11.4247 35.8614C11.3203 36.1134 11.2666 36.3835 11.2666 36.6563C11.2666 36.929 11.3203 37.1991 11.4247 37.4511C11.5291 37.7031 11.6821 37.9321 11.875 38.125C12.0679 38.3179 12.2968 38.4709 12.5488 38.5753C12.8009 38.6797 13.071 38.7334 13.3437 38.7334C13.6165 38.7334 13.8866 38.6797 14.1386 38.5753C14.3906 38.4709 14.6196 38.3179 14.8125 38.125L25 27.9375L35.1875 38.125C35.3804 38.3179 35.6093 38.4709 35.8613 38.5753C36.1134 38.6797 36.3835 38.7334 36.6562 38.7334C36.929 38.7334 37.1991 38.6797 37.4511 38.5753C37.7031 38.4709 37.9321 38.3179 38.125 38.125C38.3179 37.9321 38.4709 37.7031 38.5752 37.4511C38.6796 37.1991 38.7334 36.929 38.7334 36.6563C38.7334 36.3835 38.6796 36.1134 38.5752 35.8614C38.4709 35.6094 38.3179 35.3804 38.125 35.1875L27.9375 25L38.125 14.8125C38.9166 14.0208 38.9166 12.6875 38.125 11.8958Z" fill="white"/>
</svg>
