<svg width="66" height="60" viewBox="0 0 66 60" fill="none" xmlns="http://www.w3.org/2000/svg">
<g clip-path="url(#clip0_57_70)">
<path fill-rule="evenodd" clip-rule="evenodd" d="M35.6707 32.5C38.5816 32.5 41.3733 33.5536 43.4317 35.4289C45.49 37.3043 46.6463 39.8478 46.6463 42.5V47.5C46.6463 48.163 46.3572 48.7989 45.8427 49.2678C45.3281 49.7366 44.6302 50 43.9024 50C43.1747 50 42.4768 49.7366 41.9622 49.2678C41.4476 48.7989 41.1585 48.163 41.1585 47.5V42.5C41.1585 41.1739 40.5803 39.9021 39.5512 38.9645C38.522 38.0268 37.1262 37.5 35.6707 37.5H16.4634C15.0079 37.5 13.6121 38.0268 12.5829 38.9645C11.5538 39.9021 10.9756 41.1739 10.9756 42.5V47.5C10.9756 48.163 10.6865 48.7989 10.1719 49.2678C9.65735 49.7366 8.95942 50 8.2317 50C7.50397 50 6.80604 49.7366 6.29146 49.2678C5.77688 48.7989 5.48779 48.163 5.48779 47.5V42.5C5.48779 39.8478 6.64415 37.3043 8.70248 35.4289C10.7608 33.5536 13.5525 32.5 16.4634 32.5H35.6707ZM52.1341 32.5C54.3173 32.5 56.4111 33.2902 57.9548 34.6967C59.4986 36.1032 60.3658 38.0109 60.3658 40V45C60.3658 45.663 60.0768 46.2989 59.5622 46.7678C59.0476 47.2366 58.3497 47.5 57.6219 47.5C56.8942 47.5 56.1963 47.2366 55.6817 46.7678C55.1671 46.2989 54.878 45.663 54.878 45V40C54.878 39.337 54.589 38.7011 54.0744 38.2322C53.5598 37.7634 52.8619 37.5 52.1341 37.5H48.2488C47.2975 35.5204 45.8014 33.7981 43.9052 32.5H52.1341ZM26.0671 7.5C29.3418 7.5 32.4825 8.68526 34.7981 10.795C37.1137 12.9048 38.4146 15.7663 38.4146 18.75C38.4146 21.7337 37.1137 24.5952 34.7981 26.705C32.4825 28.8147 29.3418 30 26.0671 30C22.7923 30 19.6516 28.8147 17.336 26.705C15.0204 24.5952 13.7195 21.7337 13.7195 18.75C13.7195 15.7663 15.0204 12.9048 17.336 10.795C19.6516 8.68526 22.7923 7.5 26.0671 7.5ZM49.3902 15C51.5734 15 53.6672 15.7902 55.2109 17.1967C56.7547 18.6032 57.6219 20.5109 57.6219 22.5C57.6219 24.4891 56.7547 26.3968 55.2109 27.8033C53.6672 29.2098 51.5734 30 49.3902 30C47.2071 30 45.1133 29.2098 43.5695 27.8033C42.0258 26.3968 41.1585 24.4891 41.1585 22.5C41.1585 20.5109 42.0258 18.6032 43.5695 17.1967C45.1133 15.7902 47.2071 15 49.3902 15ZM26.0671 12.5C24.2477 12.5 22.5029 13.1585 21.2165 14.3306C19.93 15.5027 19.2073 17.0924 19.2073 18.75C19.2073 20.4076 19.93 21.9973 21.2165 23.1694C22.5029 24.3415 24.2477 25 26.0671 25C27.8864 25 29.6312 24.3415 30.9176 23.1694C32.2041 21.9973 32.9268 20.4076 32.9268 18.75C32.9268 17.0924 32.2041 15.5027 30.9176 14.3306C29.6312 13.1585 27.8864 12.5 26.0671 12.5ZM49.3902 20C48.6625 20 47.9646 20.2634 47.45 20.7322C46.9354 21.2011 46.6463 21.837 46.6463 22.5C46.6463 23.163 46.9354 23.7989 47.45 24.2678C47.9646 24.7366 48.6625 25 49.3902 25C50.118 25 50.8159 24.7366 51.3305 24.2678C51.8451 23.7989 52.1341 23.163 52.1341 22.5C52.1341 21.837 51.8451 21.2011 51.3305 20.7322C50.8159 20.2634 50.118 20 49.3902 20Z" fill="#06283D"/>
</g>
<defs>
<clipPath id="clip0_57_70">
<rect width="65.8537" height="60" fill="white"/>
</clipPath>
</defs>
</svg>
