<svg width="14" height="9" viewBox="0 0 14 9" fill="none" xmlns="http://www.w3.org/2000/svg">
<path d="M7 8.71875C6.83333 8.71875 6.67167 8.6875 6.515 8.625C6.35833 8.5625 6.22833 8.47917 6.125 8.375L0.375 2.625C0.145833 2.39583 0.03125 2.10417 0.03125 1.75C0.03125 1.39583 0.145833 1.10417 0.375 0.875C0.604166 0.645833 0.895833 0.53125 1.25 0.53125C1.60417 0.53125 1.89583 0.645833 2.125 0.875L7 5.75L11.875 0.875C12.1042 0.645833 12.3958 0.53125 12.75 0.53125C13.1042 0.53125 13.3958 0.645833 13.625 0.875C13.8542 1.10417 13.9688 1.39583 13.9688 1.75C13.9688 2.10417 13.8542 2.39583 13.625 2.625L7.875 8.375C7.75 8.5 7.61458 8.58875 7.46875 8.64125C7.32292 8.69375 7.16667 8.71958 7 8.71875Z" fill="#06283D"/>
</svg>
