<svg width="40" height="40" viewBox="0 0 40 40" fill="none" xmlns="http://www.w3.org/2000/svg">
<path d="M27.5 3.75H12.5C10.1801 3.75248 7.95596 4.67515 6.31556 6.31556C4.67515 7.95596 3.75248 10.1801 3.75 12.5V27.5C3.75248 29.8199 4.67515 32.044 6.31556 33.6844C7.95596 35.3249 10.1801 36.2475 12.5 36.25H27.5C29.8199 36.2475 32.044 35.3249 33.6844 33.6844C35.3249 32.044 36.2475 29.8199 36.25 27.5V12.5C36.2475 10.1801 35.3249 7.95596 33.6844 6.31556C32.044 4.67515 29.8199 3.75248 27.5 3.75ZM20 27.5C18.5166 27.5 17.0666 27.0601 15.8332 26.236C14.5999 25.4119 13.6386 24.2406 13.0709 22.8701C12.5032 21.4997 12.3547 19.9917 12.6441 18.5368C12.9335 17.082 13.6478 15.7456 14.6967 14.6967C15.7456 13.6478 17.082 12.9335 18.5368 12.6441C19.9917 12.3547 21.4997 12.5032 22.8701 13.0709C24.2406 13.6386 25.4119 14.5999 26.236 15.8332C27.0601 17.0666 27.5 18.5166 27.5 20C27.4979 21.9885 26.7071 23.8949 25.301 25.301C23.8949 26.7071 21.9885 27.4979 20 27.5ZM29.375 12.5C29.0042 12.5 28.6416 12.39 28.3333 12.184C28.025 11.978 27.7846 11.6851 27.6427 11.3425C27.5008 10.9999 27.4637 10.6229 27.536 10.2592C27.6084 9.89549 27.787 9.5614 28.0492 9.29917C28.3114 9.03695 28.6455 8.85837 29.0092 8.78603C29.3729 8.71368 29.7499 8.75081 30.0925 8.89273C30.4351 9.03464 30.728 9.27496 30.934 9.58331C31.14 9.89165 31.25 10.2542 31.25 10.625C31.25 11.1223 31.0525 11.5992 30.7008 11.9508C30.3492 12.3025 29.8723 12.5 29.375 12.5ZM25 20C25 20.9889 24.7068 21.9556 24.1573 22.7779C23.6079 23.6001 22.827 24.241 21.9134 24.6194C20.9998 24.9978 19.9945 25.0969 19.0245 24.9039C18.0546 24.711 17.1637 24.2348 16.4645 23.5355C15.7652 22.8363 15.289 21.9454 15.0961 20.9755C14.9031 20.0055 15.0022 19.0002 15.3806 18.0866C15.759 17.173 16.3999 16.3921 17.2221 15.8427C18.0444 15.2932 19.0111 15 20 15C21.3261 15 22.5979 15.5268 23.5355 16.4645C24.4732 17.4021 25 18.6739 25 20Z" fill="white"/>
</svg>
