<svg width="459" height="300" viewBox="0 0 459 300" fill="none" xmlns="http://www.w3.org/2000/svg">
<g clip-path="url(#clip0_226_2)">
<path d="M458.945 290.53H0C5.02889 277.706 14.3159 266.827 27.4071 263.599C46.5567 258.883 66.8251 271.847 85.9332 266.974C96.7894 264.207 105.336 256.145 114.317 249.45C148.198 224.189 194.631 216.724 234.721 230.093C255.677 237.079 274.774 249.295 296.242 254.49C324.001 261.207 353.032 255.637 381.578 254.719C409.38 253.823 449.217 265.152 458.945 290.53Z" fill="#F3F5FD"/>
<path d="M372.845 0H95.2874V201.005H372.845V0Z" fill="#DEE8F5"/>
<path d="M372.845 0H95.2874V16.5581H372.845V0Z" fill="#C1D8ED"/>
<path d="M363.549 12.4334C365.843 12.4334 367.703 10.5734 367.703 8.27906C367.703 5.9847 365.843 4.12476 363.549 4.12476C361.255 4.12476 359.395 5.9847 359.395 8.27906C359.395 10.5734 361.255 12.4334 363.549 12.4334Z" fill="white"/>
<path d="M273.179 27.3748H105.828V119.181H273.179V27.3748Z" fill="#47B5FF"/>
<path d="M273.179 156.713H105.828V162.443H273.179V156.713Z" fill="white"/>
<path d="M273.179 128.383H105.828V134.114H273.179V128.383Z" fill="white"/>
<path d="M273.179 142.548H105.828V148.278H273.179V142.548Z" fill="white"/>
<path d="M221.87 172.614H159.819V189.051H221.87V172.614Z" fill="white"/>
<path d="M363.549 27.3748H283.438V102.646H363.549V27.3748Z" fill="white"/>
<path d="M363.549 113.78H283.438V189.051H363.549V113.78Z" fill="white"/>
<path d="M137.731 91.0331L160.913 70.8599L187.183 91.0331H137.731Z" fill="white"/>
<path d="M165.027 91.033L206.271 61.4142L237.327 91.033H165.027Z" fill="white"/>
<path d="M178.466 61.9268C181.297 61.9268 183.592 59.6317 183.592 56.8007C183.592 53.9696 181.297 51.6746 178.466 51.6746C175.635 51.6746 173.34 53.9696 173.34 56.8007C173.34 59.6317 175.635 61.9268 178.466 61.9268Z" fill="white"/>
<path d="M374.783 288.271C373.878 288.119 363.666 286.374 363.666 286.374L365.351 276.513C365.351 276.513 375.532 278.252 376.434 278.403L374.783 288.271Z" fill="#E98862"/>
<path d="M357.841 297.729C357.798 297.994 357.81 298.266 357.876 298.527C357.943 298.787 358.062 299.031 358.227 299.244C358.392 299.456 358.6 299.632 358.836 299.761C359.072 299.89 359.332 299.969 359.6 299.992C359.972 300.025 360.345 299.951 360.676 299.779C361.006 299.607 361.281 299.344 361.468 299.021L367.237 288.182C367.348 287.972 367.412 287.74 367.425 287.503C367.438 287.266 367.4 287.028 367.313 286.807C366.482 285.045 366.238 283.063 366.617 281.152C366.974 279.674 367.739 278.326 368.825 277.262C368.931 277.17 369.008 277.05 369.047 276.915C369.087 276.781 369.088 276.639 369.049 276.504C369.011 276.37 368.935 276.249 368.831 276.156C368.726 276.063 368.598 276.002 368.46 275.979L362.845 275.039C362.679 275.011 362.51 275.016 362.346 275.054C362.182 275.092 362.028 275.162 361.891 275.26C361.755 275.358 361.639 275.482 361.55 275.624C361.461 275.767 361.402 275.926 361.375 276.092L357.841 297.729Z" fill="#C1D8ED"/>
<path d="M406.391 261.6C410.628 261.777 414.944 261.901 419.26 262.007L425.746 262.15L432.224 262.267L432.87 262.278C435.545 262.329 438.103 263.392 440.026 265.253C441.949 267.114 443.094 269.635 443.232 272.308C443.37 274.981 442.489 277.606 440.767 279.655C439.045 281.704 436.611 283.024 433.954 283.349L369.932 291.123L367.323 272.202L431.06 262.362L432.79 283.444L426.212 283.869L419.638 284.266C415.249 284.52 410.858 284.758 406.388 284.941L406.391 261.6Z" fill="#262626"/>
<path d="M422.541 284.127C413.703 282.841 412.821 282.602 412.531 282.526L415.131 272.867C415.102 272.859 415.064 272.849 415.018 272.839C415.743 272.997 420.234 273.683 423.98 274.227L422.541 284.127Z" fill="#E98862"/>
<path d="M433.582 292.726C433.674 292.978 433.714 293.247 433.698 293.516C433.683 293.784 433.612 294.047 433.49 294.286C433.368 294.526 433.198 294.739 432.991 294.91C432.783 295.081 432.543 295.208 432.284 295.282C431.926 295.384 431.545 295.382 431.188 295.276C430.831 295.17 430.511 294.964 430.267 294.682L422.544 285.135C422.396 284.95 422.29 284.735 422.232 284.505C422.175 284.275 422.167 284.035 422.211 283.801C422.692 281.914 422.555 279.921 421.82 278.117C421.19 276.734 420.183 275.555 418.915 274.716C418.794 274.646 418.696 274.543 418.631 274.419C418.567 274.295 418.539 274.155 418.551 274.016C418.564 273.876 418.615 273.744 418.7 273.632C418.785 273.521 418.899 273.437 419.03 273.388L424.366 271.399C424.523 271.34 424.69 271.313 424.858 271.32C425.026 271.326 425.191 271.365 425.344 271.435C425.496 271.505 425.633 271.605 425.747 271.728C425.861 271.851 425.95 271.996 426.008 272.154L433.582 292.726Z" fill="#C1D8ED"/>
<path d="M392.175 283.227C389.492 282.998 386.811 282.834 384.13 282.679C381.449 282.536 378.767 282.393 376.087 282.298L372.067 282.143L368.047 282.028C365.367 281.938 362.688 281.901 360.009 281.85L360.937 262.601C365.953 263.302 370.975 263.947 375.996 264.607C381.017 265.267 386.043 265.875 391.068 266.494L398.61 267.382L406.158 268.228C411.192 268.77 416.227 269.307 421.273 269.75L419.059 288.723C414.047 287.992 409.024 287.356 404 286.723L396.46 285.808L388.916 284.936C383.883 284.38 378.851 283.816 373.815 283.301C368.779 282.786 363.742 282.259 358.699 281.786C356.281 281.559 354.038 280.427 352.419 278.617C350.8 276.807 349.923 274.452 349.966 272.024C350.008 269.596 350.965 267.273 352.646 265.52C354.327 263.767 356.608 262.714 359.033 262.571L359.629 262.537C362.304 262.38 364.98 262.237 367.654 262.042L371.666 261.768L375.678 261.454C378.352 261.253 381.025 261.003 383.699 260.755C386.372 260.494 389.045 260.224 391.717 259.89L392.175 283.227Z" fill="#262626"/>
<path d="M416.125 258.678L417.535 282.355L376.812 281.877L379.885 260.914L416.125 258.678Z" fill="#262626"/>
<path d="M353.037 214.396C353.037 214.396 352.966 208.675 348.876 208.973C346.296 209.16 334.037 208.592 333.855 209.708C333.403 212.471 344.616 213.146 345.634 215.721L353.037 214.396Z" fill="#E98862"/>
<path d="M404.605 213.415C404.605 213.415 400.775 211.769 400.775 201.705L393.075 200.921C393.075 200.921 394.662 209.814 391.058 212.973L404.605 213.415Z" fill="#E98862"/>
<g opacity="0.15">
<path d="M392.458 210.973L398.365 205.638L393.411 205.992C393.406 207.697 393.083 209.386 392.458 210.973Z" fill="black"/>
</g>
<path d="M404.76 197.476C404.484 200.552 403.064 203.56 400.469 204.759C397.648 206.156 394.527 206.841 391.38 206.754C383.021 206.754 383.116 187.74 386.757 183.746C390.398 179.753 402.159 181.13 404.069 187.148C405.058 190.263 405.024 194.549 404.76 197.476Z" fill="#E98862"/>
<path d="M392.635 196.116C393.016 196.116 393.325 195.807 393.325 195.426C393.325 195.045 393.016 194.736 392.635 194.736C392.254 194.736 391.945 195.045 391.945 195.426C391.945 195.807 392.254 196.116 392.635 196.116Z" fill="#0F1011"/>
<path d="M387.171 196.116C387.552 196.116 387.861 195.807 387.861 195.426C387.861 195.045 387.552 194.736 387.171 194.736C386.79 194.736 386.481 195.045 386.481 195.426C386.481 195.807 386.79 196.116 387.171 196.116Z" fill="#0F1011"/>
<path d="M385.832 194.058C385.75 194.057 385.671 194.025 385.611 193.967C385.552 193.91 385.516 193.832 385.513 193.749C385.509 193.667 385.536 193.586 385.59 193.523C385.644 193.46 385.72 193.42 385.802 193.412L387.622 193.24C387.666 193.234 387.71 193.237 387.752 193.249C387.794 193.26 387.833 193.28 387.867 193.307C387.901 193.335 387.93 193.368 387.95 193.407C387.971 193.445 387.984 193.487 387.988 193.531C387.992 193.574 387.987 193.618 387.974 193.659C387.961 193.701 387.939 193.74 387.911 193.773C387.883 193.806 387.848 193.833 387.809 193.852C387.77 193.871 387.727 193.883 387.683 193.885L385.863 194.057L385.832 194.058Z" fill="#0F1011"/>
<path d="M393.991 194.058C393.974 194.058 393.957 194.057 393.941 194.055L392.109 193.769C392.024 193.756 391.947 193.71 391.897 193.64C391.846 193.571 391.825 193.484 391.838 193.399C391.851 193.314 391.897 193.238 391.967 193.187C392.036 193.136 392.123 193.115 392.208 193.128L394.04 193.414C394.121 193.426 394.195 193.468 394.246 193.532C394.298 193.596 394.323 193.677 394.317 193.758C394.311 193.84 394.274 193.917 394.214 193.972C394.154 194.028 394.075 194.059 393.993 194.058H393.991Z" fill="#0F1011"/>
<path d="M392.761 200.87C392.761 200.87 390.243 201.346 388.413 200.87C388.413 200.87 388.564 202.541 390.587 202.541C392.61 202.541 392.761 200.87 392.761 200.87Z" fill="white"/>
<path d="M398.529 190.076C398.94 203.973 400.959 205.246 400.959 205.246C400.959 205.246 407.533 200.521 407.753 192.137C407.96 184.277 401.843 180.148 397.893 179.599C382.884 177.512 382.357 191.064 382.357 191.064C389.889 192.355 400.15 190.222 400.15 190.222" fill="#0F1011"/>
<path d="M396.352 196.816C396.361 197.586 396.674 198.32 397.222 198.861C397.769 199.402 398.508 199.705 399.278 199.705C400.047 199.705 400.786 199.402 401.334 198.861C401.881 198.32 402.194 197.586 402.204 196.816C402.21 196.43 402.139 196.047 401.994 195.689C401.85 195.331 401.634 195.005 401.361 194.732C401.088 194.459 400.763 194.244 400.405 194.099C400.047 193.955 399.664 193.883 399.278 193.89C397.194 193.992 396.352 195.2 396.352 196.816Z" fill="#E98862"/>
<path d="M405.711 192.137C409.396 192.137 412.383 189.15 412.383 185.465C412.383 181.78 409.396 178.793 405.711 178.793C402.026 178.793 399.039 181.78 399.039 185.465C399.039 189.15 402.026 192.137 405.711 192.137Z" fill="#0F1011"/>
<path d="M430.439 254.034L418.887 219.684C418.418 218.011 417.505 216.497 416.246 215.301C414.069 213.124 410.311 211.719 405.728 211.714C405.385 214.386 389.161 214.396 389.037 211.776C388.417 211.786 387.936 211.795 387.636 211.809C383.156 212 380.505 213.243 379.008 215.221L363.717 230.1L353.516 211.052L344.698 215.775L358.035 240.678C358.401 241.362 358.921 241.95 359.553 242.398C360.186 242.846 360.913 243.141 361.679 243.26C362.445 243.379 363.228 243.318 363.966 243.082C364.704 242.846 365.378 242.442 365.933 241.902L378.066 230.095C378.542 233.178 378.83 236.287 378.928 239.405C379.113 254.867 374.936 257.782 376.994 262.508C378.989 267.095 418.208 269.001 418.732 260.931C418.738 260.846 418.738 260.762 418.741 260.677L425.357 260.879C425.411 260.879 425.463 260.879 425.516 260.879C426.34 260.879 427.153 260.683 427.886 260.307C428.619 259.931 429.253 259.386 429.733 258.717C430.214 258.048 430.529 257.274 430.652 256.459C430.774 255.644 430.701 254.811 430.438 254.03L430.439 254.034ZM418.215 250.271L415.847 250.199C414.974 247.316 414.534 244.319 414.541 241.307C414.541 240.735 414.574 240.17 414.629 239.608L418.215 250.271Z" fill="#367CFF"/>
<path d="M389.037 211.777C389.16 214.397 390.585 218.251 394.982 218.542C400.841 218.928 405.385 214.388 405.728 211.716H405.714C399.945 211.716 392.4 211.725 389.037 211.777Z" fill="#E98862"/>
<path d="M402.578 224.867L404.261 249.961C404.281 250.257 404.24 250.553 404.14 250.833C404.041 251.112 403.885 251.368 403.682 251.584C403.48 251.801 403.235 251.973 402.963 252.091C402.691 252.21 402.398 252.27 402.101 252.271H367.052C366.517 252.27 366 252.072 365.602 251.713C365.205 251.355 364.954 250.861 364.899 250.328L362.305 225.234C362.274 224.933 362.307 224.628 362.401 224.34C362.495 224.052 362.648 223.787 362.851 223.562C363.054 223.337 363.302 223.157 363.579 223.034C363.856 222.911 364.156 222.847 364.459 222.847H400.418C400.967 222.847 401.495 223.056 401.896 223.431C402.297 223.806 402.541 224.319 402.578 224.867Z" fill="#9EBCEA"/>
<path d="M369.979 252.271H406.805C407.639 252.271 408.316 251.594 408.316 250.76C408.316 249.925 407.639 249.249 406.805 249.249H369.979C369.145 249.249 368.468 249.925 368.468 250.76C368.468 251.594 369.145 252.271 369.979 252.271Z" fill="#9EBCEA"/>
<path d="M382.355 240.893C384.196 240.893 385.689 239.4 385.689 237.559C385.689 235.717 384.196 234.224 382.355 234.224C380.513 234.224 379.02 235.717 379.02 237.559C379.02 239.4 380.513 240.893 382.355 240.893Z" fill="white"/>
<g opacity="0.15">
<path d="M389.875 199.493C389.857 199.493 389.84 199.491 389.824 199.487L388.125 199.117C388.092 199.11 388.061 199.095 388.034 199.075C388.007 199.055 387.985 199.029 387.968 199C387.952 198.97 387.942 198.937 387.939 198.904C387.936 198.87 387.941 198.836 387.952 198.804L388.842 196.291C388.853 196.261 388.869 196.234 388.89 196.211C388.911 196.187 388.936 196.169 388.964 196.155C388.993 196.142 389.023 196.134 389.054 196.132C389.086 196.131 389.117 196.135 389.146 196.146C389.176 196.156 389.203 196.172 389.226 196.193C389.25 196.214 389.269 196.239 389.282 196.268C389.295 196.296 389.303 196.326 389.305 196.358C389.307 196.389 389.302 196.42 389.292 196.45L388.491 198.709L389.926 199.024C389.983 199.036 390.034 199.069 390.069 199.117C390.103 199.165 390.119 199.224 390.113 199.282C390.106 199.341 390.078 199.395 390.034 199.435C389.991 199.474 389.934 199.495 389.875 199.495V199.493Z" fill="black"/>
</g>
<path d="M387.159 255.457C389.298 256.777 392.609 257.401 395.495 257.63L395.657 252.371C394.3 252.332 392.213 252.19 390.17 252.271C389.246 251.518 388.715 251.294 387.767 250.346C386.758 249.337 384.11 248.731 383.61 250.346C383.11 251.961 385.282 254.295 387.159 255.457Z" fill="#E98862"/>
<path d="M61.7213 181.451L56.812 180.29L50.6572 206.323L55.5665 207.484L61.7213 181.451Z" fill="#F0F6FF"/>
<path d="M51.4132 178.269L48.6877 178.772L52.9029 201.622L55.6283 201.119L51.4132 178.269Z" fill="#C1D8ED"/>
<path d="M51.412 178.261L48.6895 178.779L49.1691 181.3L51.8917 180.782L51.412 178.261Z" fill="#DEE8F5"/>
<path d="M59.8488 184.079L51.0168 206.498L52.5304 207.094L61.3624 184.675L59.8488 184.079Z" fill="#0CBC8B"/>
<path d="M61.7834 193.887H48.4702V210.902H61.7834V193.887Z" fill="#C1D8ED"/>
<path d="M97.3224 290.624H102.302V241.638H97.3224V290.624Z" fill="#C1D8ED"/>
<path d="M101.421 290.624H106.4V241.638H101.421V290.624Z" fill="#DEE8F5"/>
<path d="M35.2982 290.624H40.2776L40.2776 241.638H35.2982L35.2982 290.624Z" fill="#C1D8ED"/>
<path d="M39.3964 290.624H44.3757L44.3757 241.638H39.3964L39.3964 290.624Z" fill="#DEE8F5"/>
<path d="M83.6647 290.624H88.644V241.638H83.6647V290.624Z" fill="#C1D8ED"/>
<path d="M87.7628 290.624H92.7422V241.638H87.7628V290.624Z" fill="#DEE8F5"/>
<path d="M21.6408 290.624H26.6201L26.6201 241.638H21.6408L21.6408 290.624Z" fill="#C1D8ED"/>
<path d="M25.7389 290.624H30.7183L30.7183 241.638H25.7389L25.7389 290.624Z" fill="#DEE8F5"/>
<path d="M88.6132 210.281H21.6404V242.812H88.6132V210.281Z" fill="#C1D8ED"/>
<path d="M106.4 210.281H39.427V242.812H106.4V210.281Z" fill="#DEE8F5"/>
<g opacity="0.53">
<path d="M102.797 214.906H43.0303V238.044H102.797V214.906Z" fill="#F3F5FD"/>
</g>
<path d="M72.914 229.129C74.3799 229.129 75.5683 227.941 75.5683 226.475C75.5683 225.009 74.3799 223.821 72.914 223.821C71.4481 223.821 70.2598 225.009 70.2598 226.475C70.2598 227.941 71.4481 229.129 72.914 229.129Z" fill="white"/>
</g>
<defs>
<clipPath id="clip0_226_2">
<rect width="458.945" height="300" fill="white"/>
</clipPath>
</defs>
</svg>
