<svg width="401" height="300" viewBox="0 0 401 300" fill="none" xmlns="http://www.w3.org/2000/svg">
<g clip-path="url(#clip0_226_82)">
<path d="M339.591 184.915L334.47 186.125L340.89 213.279L346.011 212.068L339.591 184.915Z" fill="#F0F6FF"/>
<path d="M345.225 182.809L340.828 206.642L343.671 207.167L348.068 183.333L345.225 182.809Z" fill="#C1D8ED"/>
<path d="M345.227 182.801L344.727 185.43L347.567 185.97L348.067 183.341L345.227 182.801Z" fill="#DEE8F5"/>
<path d="M336.424 188.862L334.845 189.484L344.057 212.869L345.636 212.247L336.424 188.862Z" fill="#0CBC8B"/>
<path d="M348.292 199.098H334.406V216.845H348.292V199.098Z" fill="#DEE8F5"/>
<path d="M400.753 300H0C4.39138 288.802 12.5004 279.302 23.9306 276.484C40.6529 272.367 58.3501 283.686 75.0354 279.431C84.5165 277.015 91.9783 269.975 99.8203 264.129C129.406 242.07 169.947 235.553 204.959 247.226C223.258 253.326 239.933 263.992 258.678 268.529C282.919 274.396 308.268 269.532 333.196 268.729C357.473 267.948 392.258 277.84 400.753 300Z" fill="#F3F5FD"/>
<path d="M303.694 0H20.5894V205.022H303.694V0Z" fill="#DEE8F5"/>
<path d="M170.499 29.6895H33.0083V104.773H170.499V29.6895Z" fill="white"/>
<path d="M98.0672 49.7164H46.0266V55.298H98.0672V49.7164Z" fill="#DEE8F5"/>
<path d="M98.0672 64.4404H46.0266V70.0219H98.0672V64.4404Z" fill="#DEE8F5"/>
<path d="M98.0672 79.1643H46.0266V84.7458H98.0672V79.1643Z" fill="#DEE8F5"/>
<path d="M170.499 116.64H33.0083V191.723H170.499V116.64Z" fill="white"/>
<path d="M89.2399 141.154H81.1267V179.596H89.2399V141.154Z" fill="#C1D8ED"/>
<path d="M132.339 145.926H124.226V179.595H132.339V145.926Z" fill="#C1D8ED"/>
<path d="M103.606 130.982H95.4932V179.596H103.606V130.982Z" fill="#C1D8ED"/>
<path d="M117.973 152.553H109.86V179.596H117.973V152.553Z" fill="#C1D8ED"/>
<path d="M146.705 138.809H138.592V179.596H146.705V138.809Z" fill="#C1D8ED"/>
<path d="M161.251 130.982H153.138V179.596H161.251V130.982Z" fill="#C1D8ED"/>
<path d="M289.975 30.2442H183.035V192.277H289.975V30.2442Z" fill="white"/>
<path d="M273.248 120.461H199.762V125.67H273.248V120.461Z" fill="#DEE8F5"/>
<path d="M273.248 135.271H199.762V140.48H273.248V135.271Z" fill="#DEE8F5"/>
<path d="M273.248 150.08H199.762V155.289H273.248V150.08Z" fill="#DEE8F5"/>
<path d="M264.131 164.666H208.878V169.875H264.131V164.666Z" fill="#DEE8F5"/>
<path d="M236.505 102.611C251.61 102.611 263.854 90.3661 263.854 75.2616C263.854 60.157 251.61 47.9123 236.505 47.9123C221.4 47.9123 209.156 60.157 209.156 75.2616C209.156 90.3661 221.4 102.611 236.505 102.611Z" fill="#47B5FF"/>
<g opacity="0.29">
<path d="M236.505 92.9911C246.297 92.9911 254.235 85.0533 254.235 75.2615C254.235 65.4697 246.297 57.5319 236.505 57.5319C226.713 57.5319 218.775 65.4697 218.775 75.2615C218.775 85.0533 226.713 92.9911 236.505 92.9911Z" fill="white"/>
</g>
<path d="M230.702 81.5943L232.356 79.0298C233.667 80.0326 234.813 80.5464 236.033 80.5464C237.494 80.5464 238.137 79.9401 238.137 78.7664C238.137 76.113 231.33 76.1609 231.33 71.5074C231.33 68.5159 233.402 66.6105 236.67 66.6105C237.598 66.5971 238.518 66.7859 239.366 67.1638C240.213 67.5416 240.969 68.0994 241.579 68.7985L239.682 70.9714C238.745 70.119 237.95 69.67 236.873 69.67C235.633 69.67 234.959 70.1714 234.959 71.3287C234.959 73.7879 241.766 73.5732 241.766 78.5029C241.766 81.4657 239.806 83.6058 236.032 83.6058C234.078 83.5618 232.198 82.8521 230.702 81.5943ZM235.237 64.083H237.753V67.797H235.237V64.083ZM235.237 82.0579H237.753V86.1329H235.237V82.0579Z" fill="white"/>
<path d="M131 94.5651C146.104 94.5651 158.349 82.3204 158.349 67.2158C158.349 52.1113 146.104 39.8666 131 39.8666C115.895 39.8666 103.651 52.1113 103.651 67.2158C103.651 82.3204 115.895 94.5651 131 94.5651Z" fill="#47B5FF"/>
<g opacity="0.29">
<path d="M131 84.9454C140.792 84.9454 148.729 77.0076 148.729 67.2158C148.729 57.424 140.792 49.4862 131 49.4862C121.208 49.4862 113.27 57.424 113.27 67.2158C113.27 77.0076 121.208 84.9454 131 84.9454Z" fill="white"/>
</g>
<path d="M125.197 73.5485L126.851 70.9841C128.162 71.9869 129.308 72.5006 130.528 72.5006C131.989 72.5006 132.632 71.8944 132.632 70.7206C132.632 68.0673 125.825 68.1152 125.825 63.4617C125.825 60.4701 127.897 58.5648 131.165 58.5648C132.093 58.5513 133.013 58.74 133.861 59.1179C134.708 59.4957 135.464 60.0536 136.074 60.7527L134.177 62.9256C133.24 62.0732 132.445 61.6243 131.369 61.6243C130.128 61.6243 129.454 62.1257 129.454 63.283C129.454 65.7444 136.261 65.5275 136.261 70.4572C136.261 73.42 134.301 75.5601 130.527 75.5601C128.573 75.5161 126.693 74.8065 125.197 73.5485ZM129.733 56.0377H132.248V59.7513H129.733V56.0377ZM129.733 74.0121H132.248V78.0872H129.733V74.0121Z" fill="white"/>
<path d="M58.6059 169.508C67.897 169.508 75.4289 161.976 75.4289 152.685C75.4289 143.393 67.897 135.862 58.6059 135.862C49.3149 135.862 41.783 143.393 41.783 152.685C41.783 161.976 49.3149 169.508 58.6059 169.508Z" fill="#47B5FF"/>
<g opacity="0.29">
<path d="M58.606 163.59C64.6289 163.59 69.5115 158.708 69.5115 152.685C69.5115 146.662 64.6289 141.779 58.606 141.779C52.583 141.779 47.7004 146.662 47.7004 152.685C47.7004 158.708 52.583 163.59 58.606 163.59Z" fill="white"/>
</g>
<path d="M55.0364 156.58L56.0538 155.002C56.6803 155.561 57.4777 155.89 58.3156 155.936C59.2144 155.936 59.6101 155.563 59.6101 154.842C59.6101 153.209 55.4229 153.239 55.4229 150.374C55.4229 148.534 56.6992 147.362 58.7076 147.362C59.2784 147.354 59.8442 147.47 60.3657 147.703C60.8872 147.935 61.3518 148.278 61.7274 148.708L60.5605 150.044C60.3404 149.803 60.0741 149.607 59.7774 149.47C59.4806 149.332 59.1593 149.255 58.8325 149.244C58.0694 149.244 57.6555 149.552 57.6555 150.265C57.6555 151.777 61.8427 151.645 61.8427 154.677C61.8427 156.5 60.6375 157.816 58.3156 157.816C57.1136 157.79 55.9568 157.353 55.0364 156.58ZM57.8265 145.809H59.3762V148.093H57.8265V145.809ZM57.8265 156.865H59.3762V159.372H57.8265V156.865Z" fill="white"/>
<path d="M303.694 0H20.5894V16.8886H303.694V0Z" fill="#C1D8ED"/>
<path d="M294.212 12.6818C296.552 12.6818 298.449 10.7847 298.449 8.44453C298.449 6.10432 296.552 4.20721 294.212 4.20721C291.872 4.20721 289.975 6.10432 289.975 8.44453C289.975 10.7847 291.872 12.6818 294.212 12.6818Z" fill="white"/>
<path d="M83.4084 110.98C83.4084 110.98 87.0742 109.406 87.0742 99.7756L94.4425 99.0248C94.4425 99.0248 92.9237 107.534 96.3725 110.557L83.4084 110.98Z" fill="#E98862"/>
<path d="M83.2602 95.7284C83.5246 98.6721 84.8829 101.55 87.3663 102.697C90.0659 104.034 93.0516 104.689 96.0629 104.607C104.062 104.607 103.971 86.4114 100.484 82.5907C96.9973 78.77 85.7467 80.0864 83.9189 85.8457C82.9758 88.8263 83.0082 92.9269 83.2602 95.7284Z" fill="#E98862"/>
<path d="M100.065 89.9832C101.618 89.9713 103.167 89.8407 104.7 89.5926C104.7 89.5926 104.231 77.7768 91.6823 78.4505C90.0528 78.376 88.42 78.4723 86.8105 78.7377C83.039 79.3161 77.6918 83.1723 76.828 92.8225C76.4324 97.2499 74.9058 101.423 73.7416 104.066C73.604 104.376 73.5459 104.716 73.5728 105.054C73.5996 105.392 73.7105 105.718 73.8954 106.003C74.0802 106.288 74.3332 106.522 74.6314 106.684C74.9295 106.846 75.2634 106.931 75.6028 106.931L102.487 106.718C102.805 106.718 103.118 106.644 103.402 106.501C103.687 106.359 103.933 106.152 104.123 105.896C104.313 105.641 104.44 105.345 104.495 105.032C104.549 104.719 104.53 104.397 104.438 104.093C102.977 99.2496 100.303 96.2813 100.065 89.9832Z" fill="#0F1011"/>
<path d="M114.27 294.769L104.765 293.639C105.193 290.041 105.677 285.72 105.709 285.011C105.709 285.057 105.709 285.094 105.709 285.123H115.282C115.28 285.41 115.28 286.283 114.27 294.769Z" fill="#E98862"/>
<path d="M76.1294 295.914L66.5571 295.883C66.5571 295.883 66.589 285.998 66.589 285.123H76.1613C76.1613 286.001 76.1294 295.914 76.1294 295.914Z" fill="#E98862"/>
<path d="M100.939 291.747L117.804 291.46C117.012 271.389 116.964 250.336 116.716 230.217C113.425 208.532 111.692 184.719 107.63 163.189L107.508 163.225L107.152 160.795L72.4754 158.653C72.4754 158.653 71.4726 175.647 71.1262 181.307C69.4364 208.785 66.1536 259.685 64.0938 291.199L80.899 292.619C83.9256 261.721 88.1556 216.697 91.0378 184.24C94.3475 200.043 97.0546 216.407 99.9327 232.074C100.508 251.69 100.992 272.193 100.939 291.747Z" fill="#262626"/>
<path d="M87.7655 299.616C88.0114 299.615 88.2547 299.565 88.4814 299.47C88.7082 299.375 88.9139 299.236 89.087 299.061C89.2601 298.887 89.3971 298.679 89.4901 298.452C89.5832 298.224 89.6305 297.981 89.6293 297.735C89.6293 297.689 89.6271 297.643 89.6239 297.598C89.596 297.242 89.4671 296.902 89.2524 296.617C89.0377 296.332 88.7461 296.114 88.4118 295.989L77.2702 292.258C77.0544 292.186 76.8257 292.162 76.5997 292.187C76.3737 292.212 76.1559 292.286 75.9611 292.403C74.4293 293.466 72.5971 294.009 70.7337 293.953C69.2825 293.85 67.8894 293.341 66.7134 292.484C66.61 292.4 66.4847 292.346 66.352 292.33C66.2193 292.313 66.0847 292.335 65.9639 292.393C65.8432 292.45 65.7412 292.54 65.6699 292.654C65.5987 292.767 65.5611 292.898 65.5615 293.031V298.479C65.5615 298.803 65.6901 299.114 65.9191 299.343C66.148 299.572 66.4585 299.7 66.7822 299.7H66.7868L87.7655 299.616Z" fill="#C1D8ED"/>
<path d="M125.933 299.616C126.179 299.615 126.422 299.565 126.649 299.47C126.876 299.375 127.081 299.236 127.254 299.062C127.427 298.887 127.564 298.68 127.657 298.453C127.75 298.225 127.798 297.981 127.797 297.736C127.797 297.69 127.797 297.644 127.791 297.599C127.763 297.243 127.635 296.903 127.42 296.618C127.205 296.333 126.914 296.115 126.58 295.99L115.438 292.259C115.222 292.187 114.993 292.163 114.767 292.188C114.541 292.213 114.324 292.287 114.129 292.404C112.597 293.467 110.765 294.01 108.901 293.954C107.45 293.851 106.057 293.342 104.881 292.485C104.778 292.4 104.652 292.347 104.52 292.33C104.387 292.314 104.252 292.336 104.131 292.393C104.01 292.45 103.908 292.541 103.837 292.654C103.766 292.767 103.728 292.899 103.729 293.032V298.48C103.729 298.804 103.857 299.115 104.086 299.343C104.315 299.572 104.626 299.701 104.949 299.701H104.954L125.933 299.616Z" fill="#C1D8ED"/>
<path d="M62.2651 175.081C62.2651 176.44 62.9825 180.981 61.8288 181.305C61.1369 181.5 60.3201 178.114 60.3201 178.114" fill="#E98862"/>
<path d="M56.8203 174.367C56.8203 174.367 53.0534 183.535 57.35 188.802C57.4596 188.936 57.607 189.034 57.7731 189.083C57.9391 189.132 58.116 189.129 58.2807 189.076C58.4455 189.023 58.5903 188.921 58.6963 188.784C58.8024 188.648 58.8647 188.482 58.8752 188.309C59.084 184.758 59.8 177.463 62.1416 178.315V172.588" fill="#E98862"/>
<path d="M141.76 125.519C141.76 125.519 147.021 121.34 147.393 119.839C147.765 118.338 144.06 115.386 144.06 115.386C144.06 115.386 148.987 110.417 148.004 109.7C146.845 108.85 141.128 116.073 141.128 116.073C141.128 116.073 141.937 113.475 140.93 113.304C140.516 113.234 140.188 113.64 139.541 115.479C138.804 117.576 137.33 120.728 137.33 120.728L141.76 125.519Z" fill="#E98862"/>
<path d="M136.22 119.963L120.659 137.47L108.489 115.684C107.337 112.242 104.713 109.937 99.3621 109.707C97.5319 109.629 88.602 109.616 82.0641 109.616C77.6714 109.616 74.0654 110.964 71.9832 113.046C70.934 114.08 70.149 115.351 69.6945 116.752L69.6316 116.728L59.1687 145.179C59.0511 145.498 58.9668 145.828 58.9171 146.164L54.6943 174.614L64.5255 176.073L68.6735 148.131L72.8989 136.641C73.3391 138.407 73.5796 140.217 73.6159 142.037C73.6159 151.609 69.2856 155.902 69.6047 160.814C70.1061 168.538 107.633 166.713 109.545 162.326C111.514 157.801 107.518 155.014 107.693 140.214C107.712 138.604 107.837 136.919 108.008 135.203L115.392 148.422C115.778 149.115 116.325 149.704 116.986 150.142C117.647 150.58 118.403 150.854 119.192 150.94C119.98 151.026 120.778 150.922 121.518 150.636C122.257 150.351 122.918 149.893 123.445 149.3L143.904 125.369L136.22 119.963Z" fill="#367CFF"/>
<path d="M297.337 248.904H292.143V300H297.337V248.904Z" fill="#C1D8ED"/>
<path d="M293.062 248.904H287.868V300H293.062V248.904Z" fill="#DEE8F5"/>
<path d="M362.032 248.904H356.838V300H362.032V248.904Z" fill="#C1D8ED"/>
<path d="M357.757 248.904H352.563V300H357.757V248.904Z" fill="#DEE8F5"/>
<path d="M311.583 248.904H306.389V300H311.583V248.904Z" fill="#C1D8ED"/>
<path d="M307.308 248.904H302.114V300H307.308V248.904Z" fill="#DEE8F5"/>
<path d="M376.278 248.904H371.083V300H376.278V248.904Z" fill="#C1D8ED"/>
<path d="M372.003 248.904H366.809V300H372.003V248.904Z" fill="#DEE8F5"/>
<path d="M376.278 216.198H306.421V250.13H376.278V216.198Z" fill="#C1D8ED"/>
<path d="M357.725 216.198H287.868V250.13H357.725V216.198Z" fill="#DEE8F5"/>
<g opacity="0.53">
<path d="M353.967 221.021H291.627V245.156H353.967V221.021Z" fill="#F3F5FD"/>
</g>
<path d="M322.796 235.857C324.326 235.857 325.565 234.618 325.565 233.089C325.565 231.56 324.326 230.32 322.796 230.32C321.267 230.32 320.028 231.56 320.028 233.089C320.028 234.618 321.267 235.857 322.796 235.857Z" fill="white"/>
</g>
<defs>
<clipPath id="clip0_226_82">
<rect width="400.753" height="300" fill="white"/>
</clipPath>
</defs>
</svg>
